<svg width="50" height="50" viewBox="0 0 50 50" fill="none" xmlns="http://www.w3.org/2000/svg">
<g clip-path="url(#clip0_5_4)">
<mask id="mask0_5_4" style="mask-type:luminance" maskUnits="userSpaceOnUse" x="0" y="0" width="50" height="50">
<path d="M50 0H0V50H50V0Z" fill="white"/>
</mask>
<g mask="url(#mask0_5_4)">
<path d="M19.646 37.3546C13.4912 35.3381 9.68905 37.9255 6.21219 34.7866C2.5399 31.5271 3.26786 22.3793 4.29041 18.1872C5.32148 13.9109 5.34148 7.78793 12.1163 4.42676C17.3125 1.89091 28.0361 7.41824 32.9518 10.3406C37.0379 12.8529 45.3476 13.2196 46.0122 20.3192C46.3641 26.3128 46.9118 33.6685 42.4464 37.4403C38.5294 40.6855 26.5602 39.4431 19.646 37.3546Z" fill="#FFA0D2"/>
<path d="M13.9799 6.07992C12.318 5.52551 9.13087 4.44677 5.62569 8.20588C2.0767 12.0277 5.75515 16.5472 6.42357 19.9252C7.03348 24.0396 4.52071 26.5933 8.73145 32.5392C13.6745 39.1523 16.1658 33.8056 24.2055 34.3585C32.2454 34.9114 39.538 40.0821 43.8599 35.7908C48.0373 31.5947 46.8726 27.1258 44.4928 21.3122C42.1129 15.4987 40.0663 15.9994 31.8118 13.4378C23.4743 10.8594 19.3592 8.79993 13.9799 6.07992Z" fill="#9F9FFF"/>
<path d="M22.5269 25.1143L22.4921 27.3966L23.226 32.7539L26.3082 30.8458L26.8953 27.5434V23.8787L26.1614 22.6265L22.5269 25.1143Z" fill="#B78776"/>
<path d="M26.8975 26.0837C26.8975 26.0837 25.1119 28.3456 22.5055 27.6196V25.4226L26.8975 23.8699V26.0837Z" fill="#9B6253"/>
<path d="M22.3836 27.47C22.3836 27.47 23.1688 31.8846 26.3998 28.1825L23.2362 33.4103L22.3836 27.47Z" fill="white"/>
<path d="M15.0799 35.029L14.2727 39.2855C14.2727 39.2855 13.3746 43.0842 16.6172 45.0774C21.2254 47.9101 31.2986 48.9161 35.7751 44.129C36.9339 42.8899 34.2707 33.8915 33.0965 31.3963C31.9223 28.9011 27.3355 27.0297 26.8953 27.1031L23.8623 31.1471C23.756 31.2888 23.5326 31.2411 23.4934 31.0684L22.5032 26.6672C21.6959 26.6672 16.9146 24.8281 15.0799 35.029Z" fill="#303030"/>
<path d="M14.1663 40.1615C14.1663 40.1615 18.2103 35.0706 18.9508 30.9421C18.9508 30.9421 17.2722 39.722 18.0666 45.8325C18.0666 45.8325 13.8467 44.512 14.1663 40.1615Z" fill="#202020"/>
<path d="M24.7471 47.4053C24.7471 47.4053 29.3166 43.0805 30.6404 33.2531C30.6404 33.2531 29.8383 40.101 33.3188 45.9587C33.3188 45.9587 30.322 47.9682 24.7471 47.4053Z" fill="#202020"/>
<path d="M18.7493 27.2498C18.3392 31.1294 17.4306 34.9191 15.7815 38.739C15.7815 38.739 16.2284 41.7376 16.5699 41.8906C16.9114 42.0436 19.0431 39.2926 19.0431 39.2926C20.1891 35.3163 21.01 31.0359 21.618 26.5562C21.618 26.5562 20.095 26.3257 18.7493 27.2498Z" fill="#FF7E27"/>
<path d="M28.1429 27.47C27.2662 32.3521 26.9531 37.1629 27.2504 41.8967C27.2504 41.8967 28.2045 44.2451 28.6448 44.2451C29.0852 44.2451 30.5529 42.1169 30.5529 42.1169C30.555 42.2437 30.3204 39.4691 30.4049 35.6427C30.4671 32.8201 31.3117 29.3462 31.3117 29.3462C31.3117 29.3462 29.7541 28.1039 28.1429 27.47Z" fill="#FF7E27"/>
<path d="M10.2095 12.0746L9.93444 17.6474" stroke="#4B4B4B" stroke-width="4.07998" stroke-miterlimit="10"/>
<path d="M10.3454 17.7919C10.2915 17.8988 10.0638 17.9209 9.83687 17.8411C9.60996 17.7613 9.4696 17.6099 9.52348 17.503C9.57735 17.3961 9.80507 17.3741 10.032 17.4538C10.259 17.5336 10.3993 17.685 10.3454 17.7919Z" fill="#FF7E27"/>
<path d="M9.94854 17.6395L9.27847 19.4783L10.0113 19.9461L10.5214 18.0052L9.94854 17.6395Z" fill="#FF7E27"/>
<path d="M18.3003 19.2485C18.3003 19.2485 20.4359 22.6365 21.2306 23.3116C22.0782 24.0318 23.8753 25.5193 25.4084 24.7453C26.8554 24.0148 27.5567 21.7933 27.6337 20.3975C27.6873 19.4249 27.6885 18.3678 27.1083 17.3003C26.5335 16.2426 26.0409 15.1327 26.0409 15.1327L18.3003 19.2485Z" fill="#B78776"/>
<path d="M26.8825 14.5184C26.8825 14.5184 27.393 15.9586 28.2456 15.8834C28.2456 15.8834 28.3027 14.5425 28.7785 15.4861L29.3627 16.8006C29.3627 16.8006 29.6179 15.9327 28.9666 15.0308C28.9666 15.0308 29.2556 15.1234 29.6722 15.9541C29.6722 15.9541 29.0798 12.9245 28.031 12.5285L15.0416 16.0916C15.0416 16.0916 17.9026 16.6777 15.7231 17.1192C15.7231 17.1192 16.0803 17.966 18.6074 17.9092C18.6074 17.9092 18.6622 18.4512 19.66 18.9171L20.3438 19.2705C20.3438 19.2705 19.641 18.5393 19.3202 17.631C19.3202 17.631 19.2454 17.4754 19.6866 17.1657C20.1912 16.8115 20.7129 16.8777 20.7129 16.8777C20.2659 17.2834 20.1421 17.7468 20.1421 17.7468C21.1907 17.4428 23.4924 16.1049 23.4924 16.1049C23.4924 16.1049 22.8954 16.7527 22.8147 17.0268C22.8147 17.0268 25.2084 16.1974 26.0427 15.4979C26.0889 15.4592 26.3347 15.217 26.3709 15.1738L26.8825 14.5184Z" fill="#3E3E3E"/>
<path d="M29.5964 18.2665C29.7685 19.0486 29.6959 19.7722 29.4343 19.8827C29.1727 19.9932 28.8211 19.4487 28.649 18.6667C28.4769 17.8845 28.5495 17.1609 28.8111 17.0504C29.0727 16.9399 29.4243 17.4844 29.5964 18.2665Z" fill="#B78776"/>
<path d="M21.155 8.7325C21.155 8.7325 12.3176 13.8956 10.8566 14.4545C10.8566 14.4545 24.1191 13.4655 24.6446 13.738C24.6446 13.738 33.6383 8.68376 34.0232 8.57661C34.0232 8.57661 23.2341 8.15375 21.155 8.7325Z" fill="#353535"/>
<path d="M15.4425 37.4537C15.9041 38.2761 16.2021 39.085 16.3891 39.9109L23.273 31.5924C22.8109 30.8284 22.3706 29.9754 21.9464 29.0195C21.9464 29.0195 19.6166 33.0104 15.4425 37.4537Z" fill="#E8E8E8"/>
<path d="M18.5553 33.1774L20.3033 34.8732L20.9375 34.4527L19.0323 32.8276L18.5553 33.1774Z" fill="#EA3A3A"/>
<path d="M20.4342 43.4163C20.4342 43.4163 19.9291 41.5647 24.6641 40.4506C24.6641 40.4506 25.07 41.4178 24.6446 42.2499C23.8422 43.8187 21.785 45.4929 20.4342 43.4163Z" fill="#282828"/>
<path d="M25.037 46.3964C24.4283 45.5747 20.5757 40.3066 19.7587 37.5179C19.7214 37.3908 19.616 37.2869 19.4804 37.2315C18.2718 36.7373 18.6707 35.3854 18.7071 35.2905C18.8064 35.0312 19.1272 34.9009 19.3299 34.843C19.4345 34.813 19.5203 34.7502 19.5717 34.6648C19.6384 34.5541 19.7562 34.4081 19.9349 34.3521C20.0925 34.3026 20.2051 34.1842 20.2217 34.0343C20.2456 33.8187 20.3352 33.5407 20.6159 33.3698C20.6348 33.3583 20.6553 33.3486 20.6762 33.3402C20.8687 33.2621 21.1057 33.3212 21.2399 33.4808L22.9674 35.5356C22.9674 35.5356 23.269 35.9066 23.2036 36.2622C23.1141 36.748 23.0416 38.1216 23.0155 38.6658C23.0089 38.8042 23.0838 38.94 23.2137 39.0253C24.2704 39.7193 28.913 43.0103 27.111 46.1649C27.0971 46.1893 27.0801 46.2125 27.0603 46.2333C26.9192 46.382 26.3075 46.9311 25.2606 46.5605C25.1694 46.5283 25.0914 46.47 25.037 46.3964Z" fill="#B78776"/>
<path d="M17.9321 34.5975L16.9296 33.602C16.9296 33.602 16.6533 33.8949 16.7792 34.3284L17.9321 34.5975Z" fill="#995037"/>
<path d="M17.229 35.6512L16.5346 35.1492C16.5346 35.1492 16.381 35.2692 16.3204 35.4286L17.229 35.6512Z" fill="#995037"/>
<path d="M16.6883 37.0049L15.9314 36.4453C15.9314 36.4453 15.7954 36.5228 15.7816 36.7809L16.6883 37.0049Z" fill="#995037"/>
<path d="M32.7044 42.7617C34.0395 42.8004 34.2914 42.8563 35.1427 43.6207C35.5932 44.0254 35.5929 44.5735 35.3239 45.0312C34.5278 46.3852 33.9304 46.882 31.9638 47.1093C30.122 47.3221 28.3016 46.3273 26.3393 45.1812C24.6857 44.2154 21.438 42.6181 21.1045 42.2106C21.1045 42.2106 21.7326 42.5996 22.3621 42.5965C23.776 42.5895 24.8785 42.1437 25.835 41.0498C26.4549 40.341 26.1327 39.9186 26.1327 39.9186C26.1327 39.9186 28.0009 41.1058 29.6787 42.2739C30.852 43.0908 31.8887 42.738 32.7044 42.7617Z" fill="#444444"/>
</g>
</g>
<defs>
<clipPath id="clip0_5_4">
<rect width="50" height="50" fill="white"/>
</clipPath>
</defs>
</svg>
