<svg width="275" height="257" viewBox="0 0 275 257" fill="none" xmlns="http://www.w3.org/2000/svg">
<mask id="mask0_85_2163" style="mask-type:luminance" maskUnits="userSpaceOnUse" x="0" y="-3" width="275" height="260">
<path d="M275 -3H0V257H275V-3Z" fill="white"/>
</mask>
<g mask="url(#mask0_85_2163)">
<mask id="mask1_85_2163" style="mask-type:luminance" maskUnits="userSpaceOnUse" x="73" y="92" width="131" height="131">
<path d="M73.7511 92.9482H203.087V222.948H73.7511V92.9482Z" fill="white"/>
</mask>
<g mask="url(#mask1_85_2163)">
<mask id="mask2_85_2163" style="mask-type:luminance" maskUnits="userSpaceOnUse" x="73" y="92" width="131" height="131">
<path d="M73.7511 92.9482H203.087V222.948H73.7511V92.9482Z" fill="white"/>
</mask>
<g mask="url(#mask2_85_2163)">
<path d="M196.16 168.482L200.817 165.275L200.513 156.963L127.305 130.886L73.7511 160.119L142.606 197.7L196.16 168.482Z" fill="#A44154"/>
<path d="M142.703 201.671L73.8487 164.09V159.914L142.703 197.495V201.671Z" fill="#88293B"/>
<path d="M73.8487 143.104L142.703 180.683L196.258 151.465L127.403 113.87L73.8487 143.104Z" fill="#A44154"/>
<path d="M197.467 151.885L196.258 151.466L196.257 155.628C200.193 157.022 201.574 163.976 197.792 167.162L196.257 168.277V172.438C196.257 172.438 197.305 171.937 199.509 170.252C205.072 166.001 203.631 154.018 197.467 151.885Z" fill="#BA5366"/>
<path d="M195.894 153.751L186.277 159.867L142.143 183.66L79.9142 149.695V161.114L142.143 195.079L195.894 165.85V153.751Z" fill="white"/>
<path d="M142.752 194.748L195.894 165.851V153.751L186.277 159.867L142.955 183.222L142.752 194.748Z" fill="#EF91A2"/>
<path d="M196.257 172.439L142.704 201.671V197.495L196.257 168.277V172.439Z" fill="#BA5366"/>
<path d="M196.257 155.628L142.704 184.86V180.684L196.257 151.466V155.628Z" fill="#BA5366"/>
<path d="M142.703 184.86L73.8487 147.278V143.103L142.703 180.684V184.86Z" fill="#A44154"/>
</g>
<path d="M153.746 182.155V195.22L157.35 189.579L160.311 191.447L159.946 178.879L153.746 182.155Z" fill="#F27281"/>
</g>
<mask id="mask3_85_2163" style="mask-type:luminance" maskUnits="userSpaceOnUse" x="55" y="56" width="155" height="148">
<path d="M55.2884 56.8223H209.976V203.072H55.2884V56.8223Z" fill="white"/>
</mask>
<g mask="url(#mask3_85_2163)">
<mask id="mask4_85_2163" style="mask-type:luminance" maskUnits="userSpaceOnUse" x="58" y="63" width="155" height="147">
<path d="M58.2962 63.7286H212.984V209.979H58.2962V63.7286Z" fill="white"/>
</mask>
<g mask="url(#mask4_85_2163)">
<path d="M83.9292 146.342L79.7763 143.484L80.0474 136.072L145.32 112.822L193.068 138.886L131.677 172.393L83.9292 146.342Z" fill="#D19846"/>
<path d="M131.59 175.933L192.98 142.426V138.703L131.59 172.21V175.933Z" fill="#DBA75D"/>
<path d="M192.981 123.715L131.591 157.221L83.842 131.17L145.232 97.6505L192.981 123.715Z" fill="#EFAB09"/>
<path d="M82.7639 131.544L83.842 131.171V134.882C80.3336 136.124 79.1021 142.324 82.4747 145.165L83.842 146.16V149.87C83.842 149.87 82.9087 149.423 80.9425 147.921C75.983 144.131 77.2682 133.446 82.7639 131.544Z" fill="#F7CC8D"/>
<path d="M84.1664 133.208L92.7408 138.662L132.09 159.875L187.573 129.592V139.773L132.09 170.056L84.1664 143.996V133.208Z" fill="white"/>
<path d="M131.547 169.76L84.1664 143.996V133.208L92.7408 138.661L131.366 159.484L131.547 169.76Z" fill="#EBEFFF"/>
<path d="M83.8424 149.869L131.591 175.933V172.21L83.8424 146.159V149.869Z" fill="#F7CC8D"/>
<path d="M83.8424 134.881L131.591 160.945V157.222L83.8424 131.171V134.881Z" fill="#F7CC8D"/>
<path d="M131.59 160.945L192.98 127.438V123.715L131.59 157.222V160.945Z" fill="#DBA75D"/>
</g>
</g>
<mask id="mask5_85_2163" style="mask-type:luminance" maskUnits="userSpaceOnUse" x="62" y="59" width="138" height="131">
<path d="M62.3383 59.9688H199.838V189.969H62.3383V59.9688Z" fill="white"/>
</mask>
<g mask="url(#mask5_85_2163)">
<path d="M130.955 105.261C149.581 105.261 164.704 111.708 164.704 119.649C164.704 127.59 149.581 134.037 130.955 134.037C112.329 134.037 97.2064 127.59 97.2064 119.649C97.2064 111.708 112.329 105.261 130.955 105.261Z" fill="#DBA75D"/>
<path d="M116.034 135.307C115.265 135.727 114.846 136.269 114.835 136.848C114.823 137.431 115.227 137.982 115.974 138.397L123.255 142.457C123.473 142.578 123.831 142.579 124.054 142.459C124.278 142.337 124.279 142.143 124.063 142.021L116.782 137.963C116.248 137.664 115.958 137.27 115.966 136.852C115.974 136.438 116.275 136.048 116.812 135.755C117.371 135.455 118.092 135.295 118.856 135.298C119.619 135.301 120.333 135.467 120.868 135.764L130.117 140.922C130.843 141.327 130.834 141.981 130.098 142.383C129.365 142.776 128.119 142.771 127.412 142.377L121.201 138.914C121.031 138.82 120.937 138.691 120.939 138.558C120.942 138.426 121.039 138.301 121.212 138.206C121.575 138.011 122.158 138.013 122.51 138.21L126.753 140.575C126.971 140.697 127.328 140.698 127.551 140.578C127.774 140.456 127.778 140.262 127.561 140.141L123.318 137.775C122.53 137.335 121.232 137.33 120.424 137.763C120.029 137.978 119.814 138.257 119.809 138.554C119.803 138.849 120.016 139.139 120.394 139.349L126.604 142.812C127.168 143.126 127.925 143.302 128.731 143.305C129.541 143.308 130.302 143.139 130.88 142.829C132.072 142.178 132.086 141.134 130.925 140.487L121.677 135.33C120.931 134.913 119.933 134.683 118.867 134.679C117.802 134.675 116.794 134.897 116.034 135.307Z" fill="#314891"/>
</g>
<mask id="mask6_85_2163" style="mask-type:luminance" maskUnits="userSpaceOnUse" x="53" y="17" width="156" height="147">
<path d="M53.8993 17.7037H208.587V163.954H53.8993V17.7037Z" fill="white"/>
</mask>
<g mask="url(#mask6_85_2163)">
<mask id="mask7_85_2163" style="mask-type:luminance" maskUnits="userSpaceOnUse" x="79" y="51" width="105" height="80">
<path d="M79.4657 51.6256H183.02V130.032H79.4657V51.6256Z" fill="white"/>
</mask>
<g mask="url(#mask7_85_2163)">
<path d="M182.843 79.8401V82.0748L131.168 110.294L79.4657 82.0716V79.8372L182.843 79.8401Z" fill="#375EA9"/>
<path d="M102.338 87.5133V113.446C102.338 122.439 115.358 129.729 131.418 129.729C147.478 129.729 160.498 122.439 160.498 113.446V87.5133H102.338Z" fill="#264984"/>
<g opacity="0.11319">
<path d="M102.86 94.8417C102.075 95.0509 110.753 106.323 125.107 113.907C133.465 118.323 149.362 119.294 158.433 119.471C159.761 117.607 160.498 115.575 160.498 113.446V94.1246L122.482 88.1649C122.482 88.1649 104.058 94.5219 102.86 94.8417Z" fill="black"/>
</g>
<path d="M79.4657 82.0716L131.154 53.86L182.843 82.0744L131.168 110.294L79.4657 82.0716Z" fill="#3960A7"/>
<path d="M79.4657 79.8372L131.154 51.6256L182.843 79.8401L131.168 108.059L79.4657 79.8372Z" fill="#264984"/>
<path d="M131.168 110.294V108.06L79.4657 79.8372V82.0716L131.168 110.294Z" fill="#4E75C1"/>
</g>
<path d="M156.751 122.96H158.913C160.162 122.96 161.148 121.957 161.056 120.779L159.975 115.469C159.893 114.407 158.958 113.586 157.832 113.586C156.706 113.586 155.771 114.407 155.689 115.469L154.607 120.779C154.516 121.957 155.502 122.96 156.751 122.96Z" fill="#EABD70"/>
<path d="M157.335 122.617H158.377V92.9177L129.834 77.004L129.305 77.8527L157.335 93.4795V122.617Z" fill="#EABD70"/>
<path d="M160.241 109.82C160.241 111.085 159.156 112.111 157.818 112.111C156.48 112.111 155.395 111.085 155.395 109.82C155.395 108.555 156.48 107.529 157.818 107.529C159.156 107.529 160.241 108.555 160.241 109.82Z" fill="#EABD70"/>
</g>
</g>
</svg>
